<svg width="24" height="15" viewBox="0 0 24 15" fill="none" xmlns="http://www.w3.org/2000/svg">
<path fill-rule="evenodd" clip-rule="evenodd" d="M15.1913 0.627989C14.9786 0.126762 14.4801 -0.126273 14.0781 0.0625598C13.6761 0.251671 13.5226 0.811259 13.7353 1.31256C14.8379 3.90974 16.3098 5.5157 17.7871 6.46783H0.749941C0.335867 6.468 -5.91278e-05 6.80372 -5.91278e-05 7.21783C-5.14984e-05 7.63194 0.335871 7.96767 0.749941 7.96783H17.3095C15.9967 8.94675 14.7188 10.4743 13.7353 12.7911C13.5226 13.2924 13.6761 13.852 14.0781 14.0411C14.4801 14.2299 14.9786 13.9769 15.1913 13.4756C17.2678 8.58463 20.8505 8.09266 22.3349 8.42096C22.7686 8.51668 23.232 8.16775 23.3691 7.64068C23.4231 7.43298 23.4172 7.22888 23.3652 7.05182C23.4173 6.87476 23.4231 6.67066 23.3691 6.46295C23.232 5.93588 22.7686 5.58696 22.3349 5.68268C20.8505 6.01098 17.2678 5.51897 15.1913 0.627989Z" fill="white"/>
<path fill-rule="evenodd" clip-rule="evenodd" d="M15.1913 0.627989C14.9786 0.126762 14.4801 -0.126273 14.0781 0.0625598C13.6761 0.251671 13.5226 0.811259 13.7353 1.31256C14.8379 3.90974 16.3098 5.5157 17.7871 6.46783H0.749941C0.335867 6.468 -5.91278e-05 6.80372 -5.91278e-05 7.21783C-5.14984e-05 7.63194 0.335871 7.96767 0.749941 7.96783H17.3095C15.9967 8.94675 14.7188 10.4743 13.7353 12.7911C13.5226 13.2924 13.6761 13.852 14.0781 14.0411C14.4801 14.2299 14.9786 13.9769 15.1913 13.4756C17.2678 8.58463 20.8505 8.09266 22.3349 8.42096C22.7686 8.51668 23.232 8.16775 23.3691 7.64068C23.4231 7.43298 23.4172 7.22888 23.3652 7.05182C23.4173 6.87476 23.4231 6.67066 23.3691 6.46295C23.232 5.93588 22.7686 5.58696 22.3349 5.68268C20.8505 6.01098 17.2678 5.51897 15.1913 0.627989Z" fill="url(#paint0_linear_2744_147)"/>
<defs>
<linearGradient id="paint0_linear_2744_147" x1="17.757" y1="-1.16762e-06" x2="-0.557063" y2="5.84613" gradientUnits="userSpaceOnUse">
<stop stop-color="#3E97FF"/>
<stop offset="1" stop-color="#8128F0"/>
</linearGradient>
</defs>
</svg>
